<?xml version="1.0" encoding="utf-8"?>
<!-- Generator: Adobe Illustrator 28.0.0, SVG Export Plug-In . SVG Version: 6.00 Build 0)  -->
<svg version="1.1" id="Calque_1" xmlns="http://www.w3.org/2000/svg" xmlns:xlink="http://www.w3.org/1999/xlink" x="0px" y="0px"
	 viewBox="0 0 183.3 183.3" style="enable-background:new 0 0 183.3 183.3;" xml:space="preserve">
<style type="text/css">
	.st0{fill:#FFFFFF;}
</style>
<path class="st0" d="M123,162.5H61c-31.9,0-57.9-27.4-57.9-61.1v-2.2c0-15.3,5.4-29.8,15.2-41.1C14.1,54.6,6.5,46.7,4,31.9
	c-0.3-1.6-1-6.3,1.8-8.7c1.8-1.5,4.3-1.6,7.6-0.2c3.1,1,85.3,27.5,157.1,0c3.3-1.4,5.9-1.4,7.7,0.2c2.8,2.4,2,7.2,1.8,8.7
	c-2.4,14.8-10,22.7-14.2,26.1c9.8,11.3,15.2,25.8,15.2,41.2v2.2C180.9,135,155,162.5,123,162.5L123,162.5z M8.9,27.3
	c0,0-0.4,0.8,0,3.7c2.8,17,13.2,23.5,14.4,24.2l2.7,1.6l-2.6,3.1C13.6,70.5,8.2,84.4,8.2,99.1v2.2c0,30.8,23.7,55.8,52.8,55.8h62
	c29.1,0,52.8-25.1,52.8-55.8v-2.2c0-14.7-5.5-28.7-15.3-39.2l-0.1-0.2l-2.4-3l2.6-1.6c1.2-0.7,11.6-7.4,14.4-24.2
	c0.5-2.8,0-3.6,0-3.7c0,0-0.1,0-0.2,0c-0.3,0-1.1,0.1-2.4,0.7l-0.1,0c-21.5,8.2-57.8,16.8-108.5,10.8C33.5,35.2,12,28,11.8,28
	l-0.2-0.1C9.7,27,9,27.2,8.9,27.3L8.9,27.3z M50.7,137.7c-19.8,0-35.9-17-35.9-37.9s16.1-37.9,35.9-37.9s35.9,17,35.9,37.9
	S70.5,137.7,50.7,137.7z M50.7,67.3c-17,0-30.9,14.6-30.9,32.6s13.8,32.6,30.9,32.6s30.9-14.6,30.9-32.6S67.7,67.3,50.7,67.3z
	 M133.6,138.2c-19.8,0-35.9-17-35.9-37.9s16.1-37.9,35.9-37.9s35.9,17,35.9,37.9S153.3,138.2,133.6,138.2z M133.6,67.7
	c-17,0-30.9,14.6-30.9,32.6s13.8,32.6,30.9,32.6s30.9-14.6,30.9-32.6S150.6,67.7,133.6,67.7z M91.7,145.9c-4,0-7.8-1.7-10.7-4.7
	c-0.7-0.8-1.2-1.9-1.2-3s0.4-2.2,1.2-3l7.9-8.3c0.7-0.8,1.8-1.2,2.8-1.2c1.1,0,2.1,0.4,2.8,1.2l7.9,8.3c0.7,0.8,1.2,1.9,1.2,3
	s-0.4,2.2-1.2,3l0,0C99.5,144.2,95.7,145.9,91.7,145.9z M84.1,138.2c2,2.1,4.7,3.2,7.6,3.2c2.9,0,5.5-1.1,7.6-3.2l-7.6-8L84.1,138.2
	z M63.6,111.2c0,2.2-0.9,3.4-2.4,3.4c-0.5,0-1.1-0.2-1.8-0.5l-18-8.6c-2.1-0.9-3.6-3.1-3.6-5.7s1.5-4.8,3.6-5.7l18-8.6
	c0.7-0.3,1.3-0.4,1.7-0.4c1.6,0,2.5,1.3,2.5,3.5c0,2.9-1.8,5.3-4.4,6l-13.3,5.3l13.3,5.2C61.8,105.8,63.6,108.2,63.6,111.2
	C63.6,111.1,63.6,111.2,63.6,111.2z M120.6,111.6c0,2.2,0.9,3.4,2.4,3.4c0.5,0,1.1-0.2,1.8-0.5l18-8.6c2.1-0.9,3.6-3.1,3.6-5.7
	s-1.5-4.8-3.6-5.7l-18-8.6c-0.7-0.3-1.3-0.4-1.7-0.4c-1.6,0-2.5,1.3-2.5,3.5c0,2.9,1.8,5.3,4.4,6l13.3,5.3l-13.3,5.2
	C122.4,106.2,120.6,108.6,120.6,111.6L120.6,111.6z"/>
</svg>
